<svg xmlns="http://www.w3.org/2000/svg" width="26.827" height="13.02" viewBox="0 0 26.827 13.02">
  <path id="arroww" d="M587.73-388.014a5.26,5.26,0,0,0,.521.737q2.59,2.606,5.2,5.188a1.048,1.048,0,0,0,1.5.108,1.046,1.046,0,0,0,.01-1.558q-1.695-1.7-3.4-3.391c-.065-.065-.127-.134-.232-.244h22.047a1.069,1.069,0,0,0,1.134-.741,1.05,1.05,0,0,0-.137-.9,1.05,1.05,0,0,0-.789-.455c-.1-.007-.192,0-.288,0H591.329c.1-.106.165-.178.233-.246q1.7-1.7,3.4-3.389a1.032,1.032,0,0,0,.293-1.081.991.991,0,0,0-.791-.722,1.043,1.043,0,0,0-1,.333q-1.9,1.9-3.808,3.794c-.47.469-.952.928-1.4,1.413a6.238,6.238,0,0,0-.522.738Z" transform="translate(-587.73 394.732)" fill="#2396c1"/>
</svg>
