<svg id="bank_id" data-name="bank id" xmlns="http://www.w3.org/2000/svg" width="15" height="15" viewBox="0 0 22.997 23">
  <path id="Path_19671" data-name="Path 19671" d="M11.679,0l10.63,4.768a1.055,1.055,0,0,1,.686,1.052,1.028,1.028,0,0,1-.778.935,1.653,1.653,0,0,1-.4.036Q11.5,6.794,1.186,6.8A1.152,1.152,0,0,1,0,5.974v-.4a1.2,1.2,0,0,1,.687-.805Q6,2.387,11.32,0h.359Z" fill="#227391"/>
  <path id="Path_19672" data-name="Path 19672" d="M0,272.012a2.911,2.911,0,0,1,.186-.378,1.1,1.1,0,0,1,.99-.465q2.111,0,4.221,0,8.162,0,16.324,0a2.058,2.058,0,0,1,.511.05,1.035,1.035,0,0,1-.028,2,1.742,1.742,0,0,1-.4.042q-10.306,0-20.613,0A1.136,1.136,0,0,1,0,272.418v-.4Z" transform="translate(0 -250.271)" fill="#227391"/>
  <path id="Path_19673" data-name="Path 19673" d="M18.245,110.792V101.4c-.117-.013-.235-.019-.351-.04a.508.508,0,0,1-.032-.989,1.351,1.351,0,0,1,.311-.035q8.971,0,17.941,0a1.343,1.343,0,0,1,.2.01.516.516,0,0,1-.035,1.031c-.073.007-.147.01-.236.016v9.4c.093,0,.187,0,.281,0a1.038,1.038,0,0,1,.03,2.074c-.1.007-.194.008-.291.008q-8.926,0-17.852,0a1.91,1.91,0,0,1-.531-.057,1.022,1.022,0,0,1-.717-1.108,1.039,1.039,0,0,1,.982-.914c.095,0,.19,0,.3,0Zm7.349-9.4v9.376h3.1v-9.376Zm5.215,0v9.374h3.109V101.4H30.81Zm-7.338,9.379V101.4h-3.1v9.38h3.1Z" transform="translate(-15.649 -92.601)" fill="#227391"/>
</svg>
