<svg xmlns="http://www.w3.org/2000/svg" width="38.8" height="25.5" viewBox="0 0 38.8 25.5">
  <g id="credit_checkk" data-name="credit checkk" transform="translate(0 -0.009)">
    <path id="Path_15056" data-name="Path 15056" d="M0,347.192c.1-.733.193-1.467.3-2.2.122-.806.13-.8.914-.6.195.051.387.114.584.152.324.064.382.226.3.543a22.53,22.53,0,0,0-.652,2.825c-.15,1.194-.151,2.407-.213,3.613-.01.193.076.437-.241.451-.594.027-.68.008-.717-.353-.056-.538-.135-1.074-.207-1.61-.018-.134-.048-.268-.072-.4v-2.425Z" transform="translate(0 -326.482)" fill="#6b6b6b"/>
    <path id="Path_15057" data-name="Path 15057" d="M275.782,25.288a3.134,3.134,0,0,1-2.728-4.618c.963-2.013,1.955-4.012,2.935-6.016L282.853.623c.039-.079.078-.159.114-.239a.514.514,0,0,1,.668-.343c.333.112.4.378.321.706q-1.062,4.587-2.115,9.175-1.459,6.339-2.917,12.678a3.167,3.167,0,0,1-3.142,2.688Zm.158-4.734a1.526,1.526,0,1,0,1.516,1.527A1.536,1.536,0,0,0,275.939,20.555Z" transform="translate(-258.614)" fill="#6b6b6b"/>
    <path id="Path_15058" data-name="Path 15058" d="M525.509,141.958a1.078,1.078,0,0,1-.258.214c-1.949.79-3.9,1.569-5.852,2.36-.327.133-.4-.071-.473-.3a13.688,13.688,0,0,0-2.066-4.016c-.43-.574-.91-1.112-1.394-1.643-.2-.217-.244-.364-.042-.605q1.64-1.959,3.255-3.938c.2-.245.362-.235.6-.05a21.038,21.038,0,0,1,6.131,7.719c.032.068.056.139.1.257Z" transform="translate(-488.666 -126.92)" fill="#6b6b6b"/>
    <path id="Path_15059" data-name="Path 15059" d="M591.47,338.148a14.282,14.282,0,0,0,.421-4.029c-.035-.691-.12-1.382-.215-2.068-.045-.325.033-.474.364-.566q3.024-.84,6.037-1.721c.337-.1.49-.036.6.321A23.009,23.009,0,0,1,599.7,337.7c-.009.276-.034.485-.406.484-2.526-.011-5.051-.005-7.577-.007a2.066,2.066,0,0,1-.242-.03Z" transform="translate(-560.908 -312.676)" fill="#6b6b6b"/>
    <path id="Path_15060" data-name="Path 15060" d="M156.136,62.736c.061,1.11.058,1.012-.655,1.032a14.391,14.391,0,0,0-6.644,1.819c-.316.175-.48.137-.671-.161-.435-.68-.891-1.346-1.357-2-.186-.261-.175-.425.1-.621a18.631,18.631,0,0,1,8.63-3.406c.283-.037.385.074.4.348C156,60.85,156.083,61.958,156.136,62.736Z" transform="translate(-139.104 -56.311)" fill="#6b6b6b"/>
    <path id="Path_15061" data-name="Path 15061" d="M26.243,157.188a2.088,2.088,0,0,1-.237.252,16.379,16.379,0,0,0-4.875,5.981.331.331,0,0,1-.484.2c-.386-.154-.77-.313-1.164-.444-.308-.1-.374-.257-.266-.567a17.094,17.094,0,0,1,2.361-4.627c.733-.989,1.582-1.892,2.379-2.833.21-.248.39-.253.607.014.477.586.978,1.154,1.467,1.732C26.1,156.975,26.159,157.071,26.243,157.188Z" transform="translate(-18.178 -146.944)" fill="#6b6b6b"/>
    <path id="Path_15062" data-name="Path 15062" d="M474.112,80.55c.96.489,1.889.952,2.807,1.435.242.127.117.316.009.482q-.986,1.5-1.971,3c-.242.368-.488.734-.722,1.107-.148.237-.3.251-.524.089-.9-.638-.9-.631-.653-1.69q.481-2.059.955-4.118c.016-.07.043-.136.1-.3Z" transform="translate(-448.481 -76.38)" fill="#6b6b6b"/>
    <path id="Path_15063" data-name="Path 15063" d="M361.1,57.525l-2.227,4.553c-.049.018-.073.036-.094.033-1.089-.181-1.1-.182-1.054-1.3.04-1.032.088-2.064.158-3.1.009-.13.172-.361.257-.358C359.1,57.393,360.063,57.462,361.1,57.525Z" transform="translate(-339.225 -54.387)" fill="#6b6b6b"/>
  </g>
</svg>
