<svg id="dashboard" xmlns="http://www.w3.org/2000/svg" width="26" height="27" viewBox="0 0 23.086 23.082">
  <path id="Path_786" data-name="Path 786" d="M0,214.219c.034-.107.064-.215.1-.32a1.66,1.66,0,0,1,1.576-1.106q3.606-.016,7.212,0a1.675,1.675,0,0,1,1.693,1.78q.005,2.873,0,5.746v3.876a1.769,1.769,0,0,1-1.432,2.06H1.443a1.762,1.762,0,0,1-1.235-.884A5.294,5.294,0,0,1,0,224.857V214.219Zm1.443,5.32V224.4c0,.355.051.407.4.407H8.737c.346,0,.4-.059.4-.405V214.63c0-.332-.066-.4-.392-.4H1.832c-.329,0-.389.063-.389.4v4.911Z" transform="translate(0 -203.173)" fill="#fff"/>
  <path id="Path_787" data-name="Path 787" d="M-.01,1.4c.025-.069.054-.136.076-.206A1.663,1.663,0,0,1,1.648,0Q5.277-.007,8.906,0a1.655,1.655,0,0,1,1.661,1.669q.03,2.175,0,4.349A1.649,1.649,0,0,1,8.882,7.69q-3.607.022-7.213,0A1.657,1.657,0,0,1,.031,6.368a.841.841,0,0,0-.041-.1V1.4Zm5.287.045H1.809c-.31,0-.375.063-.375.363q0,2.038,0,4.077c0,.3.068.372.369.372H8.764c.3,0,.368-.075.368-.378q0-2.027,0-4.054c0-.315-.067-.379-.385-.379H5.278Z" transform="translate(0.01 0.003)" fill="#fff"/>
  <path id="Path_788" data-name="Path 788" d="M278.059,348.305c-.106-.034-.214-.064-.319-.1a1.664,1.664,0,0,1-1.107-1.575c-.014-1.449-.019-2.9,0-4.348a1.669,1.669,0,0,1,1.755-1.67c1.63-.005,3.26,0,4.89,0,.714,0,1.427,0,2.141,0a1.691,1.691,0,0,1,1.79,1.8q0,2.017,0,4.033a1.693,1.693,0,0,1-1.4,1.845.224.224,0,0,0-.04.021h-7.71Zm3.864-1.443h3.469c.317,0,.377-.061.377-.384v-4.054c0-.3-.068-.373-.368-.373H278.44c-.3,0-.369.074-.369.376q0,2.027,0,4.054c0,.316.067.381.383.381h3.469Z" transform="translate(-264.127 -325.224)" fill="#fff"/>
  <path id="Path_789" data-name="Path 789" d="M287.344,6.76q0,2.467,0,4.934a1.692,1.692,0,0,1-1.8,1.81q-3.493,0-6.986,0a1.694,1.694,0,0,1-1.8-1.792q0-4.945,0-9.89a1.688,1.688,0,0,1,1.78-1.784q3.515,0,7.031,0A1.683,1.683,0,0,1,287.343,1.8Q287.347,4.282,287.344,6.76Zm-1.443.015V1.887c0-.355-.051-.406-.4-.406h-6.895c-.346,0-.4.058-.4.405v9.777c0,.332.066.4.392.4h6.917c.328,0,.389-.064.389-.4V6.775Z" transform="translate(-264.259 -0.036)" fill="#fff"/>
</svg>
