<svg id="deactivate_new" data-name="deactivate new" xmlns="http://www.w3.org/2000/svg" width="23.752" height="23.755" viewBox="0 0 23.752 23.755">
  <path id="Path_19743" data-name="Path 19743" d="M0,11.861A11.876,11.876,0,1,1,11.89,23.755,11.888,11.888,0,0,1,0,11.861ZM4.276,6.283l16.371,9.076A9.434,9.434,0,0,0,4.276,6.283ZM3.109,8.4a9.424,9.424,0,0,0,16.354,9.066L3.109,8.4Z" transform="translate(0 0)" fill="#e52323"/>
  <path id="Path_19744" data-name="Path 19744" d="M289.437,151.73c-.14-.063-.2-.084-.251-.113-.555-.307-1.113-.609-1.661-.927a.523.523,0,0,1-.224-.278,4.789,4.789,0,0,0-2.234-2.931.977.977,0,0,1-.555-.963.955.955,0,0,1,1.467-.742,6.607,6.607,0,0,1,3.231,4.358c.117.5.147,1.021.226,1.595Z" transform="translate(-270.775 -138.602)" fill="#e52323"/>
  <path id="Path_19745" data-name="Path 19745" d="M227.9,88.553c-.639-.354-1.237-.682-1.829-1.02a.255.255,0,0,1-.095-.191c-.005-1.263-.01-2.526,0-3.79a.946.946,0,0,1,.943-.937.93.93,0,0,1,.974.875c.017,1.672.006,3.344.006,5.061Z" transform="translate(-215.063 -78.628)" fill="#e52323"/>
  <path id="Path_19746" data-name="Path 19746" d="M172.55,147.141l-1.68-.932a1.058,1.058,0,0,1,1.357-.159.925.925,0,0,1,.324,1.091Z" transform="translate(-162.621 -138.828)" fill="#e52323"/>
  <path id="Path_19747" data-name="Path 19747" d="M108.5,225.568a4.82,4.82,0,0,0,8.176,4.534l1.694.94a6.708,6.708,0,0,1-11.563-6.411Z" transform="translate(-101.28 -213.786)" fill="#e52323"/>
</svg>
