<svg xmlns="http://www.w3.org/2000/svg" width="23" height="22.893" viewBox="0 0 23 22.893">
  <g id="Group_7262" data-name="Group 7262" transform="translate(-1624 -301.611)">
    <g id="editing" transform="translate(1624.002 301.605)">
      <path id="Path_14794" data-name="Path 14794" d="M-222.4,85.42a2.453,2.453,0,0,1-.769,1.181c-.624.6-1.231,1.226-1.845,1.839-.058.058-.116.113-.162.156l-4.675-4.676c.026-.027.073-.08.124-.13q.881-.883,1.763-1.763a2.072,2.072,0,0,1,3.089,0c.573.57,1.137,1.15,1.718,1.712a2.329,2.329,0,0,1,.756,1.188Z" transform="translate(245.396 -81.33)" fill="#227391"/>
      <path id="Path_14795" data-name="Path 14795" d="M-449.72,164.652l-4.62-4.61,11.814-11.8,4.61,4.611Z" transform="translate(456.835 -144.344)" fill="#227391"/>
      <path id="Path_14796" data-name="Path 14796" d="M-496.124,373.72l4.644,4.638c-.44.109-.885.22-1.333.329l-3.685.892c-.587.142-.894-.147-.764-.733Q-496.7,376.284-496.124,373.72Z" transform="translate(497.29 -356.715)" fill="#227391"/>
    </g>
  </g>
</svg>
