<svg xmlns="http://www.w3.org/2000/svg" width="70" height="70" viewBox="0 0 70 70">
  <g id="Group_7306" data-name="Group 7306" transform="translate(-817 -248)">
    <rect id="Rectangle_5995" data-name="Rectangle 5995" width="70" height="70" rx="4" transform="translate(817 248)" fill="#fe738b" opacity="0.2"/>
    <g id="faileda" transform="translate(829.449 261.997)">
      <path id="Path_19754" data-name="Path 19754" d="M74.68,77.824a15.277,15.277,0,0,1-2.54,8.662,7.291,7.291,0,0,1-.685.822c-.433.468-.429.555.117.856,2.024,1.117,4.052,2.226,6.072,3.35a11.366,11.366,0,0,1,3.8,3.42.979.979,0,0,1,.068,1.185.876.876,0,0,1-1.014.41,1.254,1.254,0,0,1-.653-.434,10.735,10.735,0,0,0-3.785-3.2c-1.859-.993-3.695-2.027-5.541-3.043A2.29,2.29,0,0,1,69.957,86a9.4,9.4,0,0,0,2.234-4.4,16.5,16.5,0,0,0-.553-10.064,6.714,6.714,0,0,0-5.9-4.511,11.289,11.289,0,0,0-4.347.255,6.668,6.668,0,0,0-4.681,4.133,15.483,15.483,0,0,0,.2,12.566,8.724,8.724,0,0,0,1.438,2.082,2.288,2.288,0,0,1-.55,3.71q-3.059,1.683-6.153,3.307a10.08,10.08,0,0,0-3.516,2.967,1,1,0,1,1-1.585-1.177,11.653,11.653,0,0,1,4.03-3.459c2-1.06,3.986-2.132,5.977-3.2.64-.344.644-.415.153-.945a11.473,11.473,0,0,1-2.554-4.985,17.7,17.7,0,0,1,.712-11.583A8.925,8.925,0,0,1,62.7,65.03a12.751,12.751,0,0,1,5.048.382C71.1,66.4,72.973,68.8,73.93,72.03a20.352,20.352,0,0,1,.75,5.8Z" transform="translate(-41.525 -58.304)" fill="#ff3131"/>
      <path id="Path_19755" data-name="Path 19755" d="M.01,7.91c0-1.173-.005-2.347,0-3.52A4.339,4.339,0,0,1,4.421.005Q8.043,0,11.666.005A1.05,1.05,0,0,1,12.8.756a1,1,0,0,1-1.05,1.232c-2.381.007-4.762,0-7.143.006a3.38,3.38,0,0,0-.66.041A2.345,2.345,0,0,0,2,4.426c-.006,2.432,0,4.864-.005,7.3a.98.98,0,0,1-1,1.092.985.985,0,0,1-.975-1.076C0,10.463.01,9.187.01,7.912Z" transform="translate(-0.01 0)" fill="#ff3131"/>
      <path id="Path_19756" data-name="Path 19756" d="M318.877.012c1.173,0,2.347,0,3.52,0a4.335,4.335,0,0,1,4.39,4.35c.01,2.449.005,4.9,0,7.347a1.02,1.02,0,0,1-.846,1.1.965.965,0,0,1-1.079-.657,1.837,1.837,0,0,1-.057-.551q-.006-3.52,0-7.04A2.384,2.384,0,0,0,322.22,2q-3.52,0-7.04,0c-.773,0-1.209-.369-1.2-1S314.43.014,315.2.012q1.837,0,3.673,0Z" transform="translate(-281.918 -0.008)" fill="#ff3131"/>
      <path id="Path_19757" data-name="Path 19757" d="M7.9,326.675c-1.173,0-2.347,0-3.52,0A4.343,4.343,0,0,1,0,322.306q-.011-3.647,0-7.3a1.051,1.051,0,0,1,.76-1.127,1,1,0,0,1,1.223,1.057c.007,2.364,0,4.727,0,7.091a3.571,3.571,0,0,0,.044.71,2.347,2.347,0,0,0,2.4,1.944c2.431.006,4.864,0,7.3.005a.985.985,0,0,1,1.082,1.112,1.012,1.012,0,0,1-1.081.869c-1.275.007-2.551,0-3.826,0Z" transform="translate(0 -281.8)" fill="#ff3131"/>
      <path id="Path_19758" data-name="Path 19758" d="M318.846,326.657c-1.224,0-2.449,0-3.673,0-.729,0-1.174-.374-1.185-.974-.01-.635.425-1.011,1.189-1.012q3.52,0,7.04,0a2.387,2.387,0,0,0,2.593-2.607q0-3.571,0-7.142a.983.983,0,0,1,.68-1.024.868.868,0,0,1,1.049.3,1.294,1.294,0,0,1,.249.7c.016,2.551.048,5.1,0,7.652a4.307,4.307,0,0,1-4.212,4.106c-1.241.016-2.483,0-3.724,0Z" transform="translate(-281.926 -281.782)" fill="#ff3131"/>
      <path id="Path_19759" data-name="Path 19759" d="M179.945,142.91c.757.745,1.481,1.458,2.2,2.172.242.239.49.473.718.725a.972.972,0,0,1,.007,1.451.959.959,0,0,1-1.413-.059c-.89-.866-1.762-1.751-2.642-2.629-.071-.072-.15-.135-.273-.245-.139.124-.279.235-.4.36-.832.828-1.652,1.669-2.5,2.486a.989.989,0,0,1-1.731-.4,1.017,1.017,0,0,1,.371-1.045q1.189-1.195,2.381-2.383c.132-.132.257-.269.428-.447-.128-.145-.238-.285-.364-.412-.839-.845-1.687-1.682-2.522-2.532-.276-.28-.484-.648-.257-1.008a1.471,1.471,0,0,1,.8-.669,1.279,1.279,0,0,1,.93.362c.862.8,1.686,1.635,2.5,2.483.283.3.454.283.731,0,.813-.847,1.649-1.671,2.487-2.495a.994.994,0,0,1,1.331-.237.976.976,0,0,1,.1,1.611c-.807.829-1.634,1.639-2.451,2.459-.129.13-.252.264-.433.454Z" transform="translate(-156.104 -124.104)" fill="#ff3131"/>
    </g>
  </g>
</svg>
