<svg xmlns="http://www.w3.org/2000/svg" width="20" height="20" viewBox="0 0 30.15 30.34">
  <path stroke="#2396c1" stroke-width="1" id="home-svgrepo-com" d="M30.167,13.844l-4.513-4.19V2.789h-5.2V4.827L15.258,0,.349,13.844a.52.52,0,1,0,.708.762L2.782,13V30.34H27.734V13l1.725,1.6a.52.52,0,1,0,.707-.762ZM21.5,3.829h3.119v4.86L21.5,5.793ZM12.139,29.3V18.351a.487.487,0,0,1,.487-.487H17.89a.487.487,0,0,1,.487.487V29.3H12.139Zm14.555,0H19.416V18.351a1.528,1.528,0,0,0-1.527-1.527H12.626A1.528,1.528,0,0,0,11.1,18.351V29.3H3.821V12.038L15.258,1.419l7.423,6.893,2.973,2.761h0l1.04.965Z" transform="translate(-0.183)" fill="#2396c1"/>
</svg>
