<svg xmlns="http://www.w3.org/2000/svg" width="26.898" height="27.025" viewBox="0 0 26.898 27.025">
  <path id="Integration" d="M14.286,16.062l-1.689,1.7a1.208,1.208,0,0,1,.378.857,1.155,1.155,0,0,1-.362.859L8.384,23.737a1.08,1.08,0,0,1-.84.384,1.182,1.182,0,0,1-.876-.365L3.274,20.372a1.208,1.208,0,0,1-.378-.857,1.155,1.155,0,0,1,.362-.859L7.487,14.4a1.015,1.015,0,0,1,.835-.365,1.362,1.362,0,0,1,.881.349l1.689-1.7-.867-.849a2.246,2.246,0,0,0-1.7-.719,2.439,2.439,0,0,0-1.724.716L.674,17.824a2.324,2.324,0,0,0-.681,1.708,2.439,2.439,0,0,0,.716,1.724l5.126,5.081a2.323,2.323,0,0,0,1.708.681A2.439,2.439,0,0,0,9.268,26.3L15.2,20.307a2.323,2.323,0,0,0,.681-1.708,2.3,2.3,0,0,0-.724-1.689l-.867-.849h0ZM26.172,5.755,21.045.674a2.324,2.324,0,0,0-1.708-.681,2.439,2.439,0,0,0-1.724.716L11.684,6.7a2.4,2.4,0,0,0,.043,3.4l.867.849,1.689-1.7a1.208,1.208,0,0,1-.378-.857,1.155,1.155,0,0,1,.362-.859L18.5,3.274a1.08,1.08,0,0,1,.84-.384,1.182,1.182,0,0,1,.876.365l3.394,3.381a1.208,1.208,0,0,1,.378.857,1.155,1.155,0,0,1-.362.859l-4.229,4.262a1.015,1.015,0,0,1-.835.365,1.362,1.362,0,0,1-.881-.349l-1.689,1.7.867.849a2.246,2.246,0,0,0,1.7.719,2.439,2.439,0,0,0,1.724-.716l5.929-5.994a2.323,2.323,0,0,0,.681-1.708,2.452,2.452,0,0,0-.719-1.721h0ZM8.865,16.935A1.24,1.24,0,0,0,9.2,17.8a1.173,1.173,0,0,0,.849.319,1.24,1.24,0,0,0,.867-.338L17.7,10.922a1.173,1.173,0,0,0,.319-.849,1.24,1.24,0,0,0-.338-.867,1.173,1.173,0,0,0-.849-.319,1.24,1.24,0,0,0-.867.338L9.184,16.086A1.173,1.173,0,0,0,8.865,16.935Z" transform="translate(26.891 27.018) rotate(180)" fill="#fff"/>
</svg>
