<svg xmlns="http://www.w3.org/2000/svg" width="69" height="70" viewBox="0 0 69 70">
  <g id="Group_7307" data-name="Group 7307" transform="translate(-1380 -248)">
    <rect id="Rectangle_5995" data-name="Rectangle 5995" width="69" height="70" rx="4" transform="translate(1380 248)" fill="#888b8a" opacity="0.18"/>
    <g id="lock_a" data-name="lock a" transform="translate(1391.997 260.824)">
      <path id="Path_19760" data-name="Path 19760" d="M17.343,32.293c-.768,1.141-1.534,2.243-2.256,3.373a1.621,1.621,0,0,1-1.479.788,34.14,34.14,0,0,0-5.044.272A7.652,7.652,0,0,0,2.024,44.1c-.036.755-.237,1.366-1.085,1.31S-.029,44.661.01,43.95a9.691,9.691,0,0,1,7.839-9.1,27.682,27.682,0,0,1,4.841-.39,1.35,1.35,0,0,0,1.28-.706c.531-.882,1.134-1.723,1.719-2.6-.6-.644-1.235-1.246-1.783-1.918a14.868,14.868,0,0,1-3.294-7.349A1.258,1.258,0,0,0,10,21.1a3.2,3.2,0,0,1-1.986-3.208,24.235,24.235,0,0,0,0-2.908,2.894,2.894,0,0,1,1.417-2.771,1.25,1.25,0,0,0,.614-1.241c-.034-.9-.023-1.815.013-2.72a6.976,6.976,0,0,1,5.8-6.752C17.617,1.134,19.334.468,21.112.23A17.989,17.989,0,0,1,26.317.177c3.516.569,5.586,3.448,5.71,7.534.038,1.248.006,2.5.006,3.777,1.607.345,2.038,1.457,2.025,2.881-.013,1.314.009,2.628-.008,3.942A3.333,3.333,0,0,1,32.776,21.1a2.194,2.194,0,0,0-.507,1.3,14.777,14.777,0,0,1-3.183,7.2c-3.161,3.85-6.579,4.642-11.741,2.7ZM30.037,9.741h-.06c0-.875.056-1.755-.009-2.624-.246-3.247-2.159-5.134-5.4-5.153a24.081,24.081,0,0,0-4.447.511c-1.158.212-2.26.783-3.418.929A5.067,5.067,0,0,0,12.023,8.47c-.023,1.156-.03,2.314,0,3.471a1.441,1.441,0,0,1-.916,1.562,1.62,1.62,0,0,0-1.1,1.834,20.735,20.735,0,0,1,.019,2.343c0,1.151.278,1.543,1.383,1.718.813.128,1.07.554,1.126,1.327A12.141,12.141,0,0,0,17.5,29.906a6.613,6.613,0,0,0,9.173-.657,12.341,12.341,0,0,0,3.709-8.27c.041-.638.026-1.353.811-1.5.755-.141.86-.588.856-1.2-.009-1.314-.019-2.628.006-3.94.011-.6-.116-.961-.82-.931-.888.038-1.205-.5-1.2-1.318.009-.781,0-1.564,0-2.346Z" transform="translate(0 0)" fill="#393a3e"/>
      <path id="Path_19761" data-name="Path 19761" d="M163.364,144.3c3.516.473,4.017,1.059,4.017,4.6,0,1.438.015,2.876,0,4.312a3.008,3.008,0,0,1-3.253,3.2q-5.766.014-11.531,0a2.981,2.981,0,0,1-3.225-3.21c-.028-1.749-.013-3.5-.006-5.25.009-2.41,1.062-3.486,3.458-3.551.15,0,.3-.021.544-.038,0-1.406-.034-2.772.008-4.139a5,5,0,0,1,4.524-4.813,4.927,4.927,0,0,1,5.321,3.889,25.22,25.22,0,0,1,.146,3.831C163.376,143.524,163.364,143.922,163.364,144.3Zm-5,10.1c1.877,0,3.754.009,5.629,0,1.091-.008,1.37-.306,1.374-1.413q.011-2.627,0-5.254c-.006-.984-.31-1.314-1.28-1.316q-5.724-.02-11.446,0c-.972,0-1.276.33-1.286,1.318-.015,1.751-.011,3.5,0,5.254.006,1.1.3,1.4,1.382,1.413,1.877.015,3.752,0,5.629,0Zm-2.953-10.063h5.858a41.909,41.909,0,0,0-.038-4.616,2.773,2.773,0,0,0-3.061-2.3,2.828,2.828,0,0,0-2.739,2.487c-.1,1.455-.023,2.921-.023,4.434Z" transform="translate(-121.316 -109.964)" fill="#393a3e"/>
    </g>
  </g>
</svg>
