<svg xmlns="http://www.w3.org/2000/svg" width="21.975" height="21.973" viewBox="0 0 21.975 21.973">
  <g id="logout-svgrepo-com" transform="translate(0 -0.023)">
    <g id="Group_7241" data-name="Group 7241" transform="translate(0 0.023)">
      <g id="Group_7240" data-name="Group 7240" transform="translate(0 0)">
        <path id="Path_19688" data-name="Path 19688" d="M102.766,221.782a.366.366,0,0,0-.366.366v2.2a.366.366,0,1,0,.732,0v-2.2A.366.366,0,0,0,102.766,221.782Z" transform="translate(-98.005 -212.264)" fill="#ff2626"/>
        <path id="Path_19689" data-name="Path 19689" d="M4.8.121,1.338,1.506A1.694,1.694,0,0,0,0,3.315V18.7a1.69,1.69,0,0,0,1.329,1.805L4.808,21.9a1.45,1.45,0,0,0,.514.1,1.331,1.331,0,0,0,1.271-1.463V1.483A1.312,1.312,0,0,0,4.8.121ZM5.86,20.533c0,.437-.216.731-.538.731a.725.725,0,0,1-.249-.048L1.592,19.822C.9,19.566.733,19.346.733,18.7V3.315c0-.645.169-.865.869-1.125L5.066.8A.729.729,0,0,1,5.322.753c.322,0,.538.293.538.73Z" transform="translate(0 -0.023)" fill="#ff2626"/>
        <path id="Path_19690" data-name="Path 19690" d="M169.966,34.781h5.173a1.1,1.1,0,0,1,1.1,1.1v5.494a.366.366,0,1,0,.732,0V35.879a1.833,1.833,0,0,0-1.831-1.831h-5.173a.366.366,0,0,0,0,.733Z" transform="translate(-162.321 -32.588)" fill="#ff2626"/>
        <path id="Path_19691" data-name="Path 19691" d="M177.626,298.582a.366.366,0,0,0-.366.366v5.494a1.1,1.1,0,0,1-1.1,1.1h-5.128a.366.366,0,1,0,0,.732h5.128a1.833,1.833,0,0,0,1.831-1.831v-5.494A.366.366,0,0,0,177.626,298.582Z" transform="translate(-163.342 -285.768)" fill="#ff2626"/>
        <path id="Path_19692" data-name="Path 19692" d="M201.623,165.927a.365.365,0,0,0-.079-.119l-3.662-3.663a.366.366,0,1,0-.518.518L200.4,165.7H188.1a.366.366,0,1,0,0,.732h12.3l-3.037,3.037a.366.366,0,1,0,.518.518l3.662-3.662a.367.367,0,0,0,.079-.4Z" transform="translate(-179.676 -155.084)" fill="#ff2626"/>
      </g>
    </g>
  </g>
</svg>
