<svg xmlns="http://www.w3.org/2000/svg" width="33.544" height="33.555" viewBox="0 0 33.544 33.555">
  <g id="penn" transform="translate(0 -0.016)">
    <path id="Path_15064" data-name="Path 15064" d="M0,12.01c.056-.22.1-.442.17-.658a3.345,3.345,0,0,1,3.3-2.358q11.288,0,22.575.007a.469.469,0,0,0,.545-.383c.536-1.683,1.108-3.354,1.644-5.036A1.732,1.732,0,0,1,29.625,2.27a.386.386,0,0,0,.231-.217c.116-.293.2-.6.3-.9a1.627,1.627,0,1,1,3.094,1.009,3.216,3.216,0,0,1-.1.312,1.039,1.039,0,0,0,.109,1.286,1.375,1.375,0,0,1,.133,1.4q-.663,2-1.319,4.007c-.033.1-.062.206-.1.322a3.339,3.339,0,0,1,1.465,2.1,4.653,4.653,0,0,1,.1.941q.008,8.732,0,17.464a3.356,3.356,0,0,1-2.851,3.531.4.4,0,0,0-.087.044H2.949a1.074,1.074,0,0,0-.151-.055A3.314,3.314,0,0,1,.093,30.929C.06,30.8.031,30.681,0,30.556V12.009ZM3.939,30.2H29.6V16.824c-.362.978-.737,1.946-1,2.944a7.233,7.233,0,0,1-1.73,3.1,1.95,1.95,0,0,1-1.84.881c-.066.189-.123.353-.179.517s-.105.356-.173.528a.556.556,0,1,1-1.056-.35c.074-.262.157-.523.254-.777.067-.174.069-.282-.116-.4a1.515,1.515,0,0,1-.707-1.229c-.041-.632-.1-1.263-.115-1.9a2.43,2.43,0,0,1,.115-.8c.716-2.209,1.446-4.413,2.171-6.618.039-.116.064-.238.095-.355H3.939V30.2Zm22.143-20.1H3.507A2.238,2.238,0,0,0,1.13,12.491q0,8.782,0,17.563a2.248,2.248,0,0,0,2.4,2.4H30.04a2.84,2.84,0,0,0,.457-.025,2.232,2.232,0,0,0,1.93-2.319q.007-8.831,0-17.662a2.727,2.727,0,0,0-.054-.553,2.121,2.121,0,0,0-.77-1.27c-.249.751-.5,1.461-.715,2.181a3.04,3.04,0,0,0-.138.862q-.012,8.16-.006,16.318c0,.949-.405,1.354-1.355,1.354H4.156c-.93,0-1.341-.41-1.341-1.335V12.571c0-.952.4-1.349,1.355-1.349H25.306a1.035,1.035,0,0,0,.261-.005.294.294,0,0,0,.187-.127c.117-.314.215-.636.33-.984ZM24.02,20.233l.035.006c.023.381.051.763.068,1.143.045.94.046.944.945,1.214.021.006.041.015.062.02a.565.565,0,0,0,.642-.2c.381-.464.773-.918,1.153-1.383a1.1,1.1,0,0,0,.185-.341q2.613-7.932,5.218-15.867c.142-.433.026-.651-.412-.8-.547-.184-1.1-.362-1.646-.541-.632-.2-.784-.128-.988.493q-2.573,7.808-5.14,15.617a4.776,4.776,0,0,0-.12.635Zm7.845-17.4c.113-.362.235-.7.321-1.045a.455.455,0,0,0-.3-.579.444.444,0,0,0-.6.2c-.161.348-.266.723-.4,1.1Z" transform="translate(0 0)" fill="#6b6b6b"/>
    <path id="Path_15065" data-name="Path 15065" d="M67.373,182.331c0-.416-.013-.806,0-1.2a2.227,2.227,0,1,1,2.363,2.323c-.4.022-.8,0-1.254,0v3.387a6.417,6.417,0,0,1,3.864,1.826c.077-.1.145-.182.207-.268.53-.735,1.053-1.474,1.59-2.2a1.108,1.108,0,0,1,1.876-.014,2.827,2.827,0,0,0,2.485,1.2c.36-.012.721-.008,1.081,0a.574.574,0,0,1,.624.571.561.561,0,0,1-.616.54,17.386,17.386,0,0,1-1.959-.065,3.579,3.579,0,0,1-2.326-1.342c-.069-.082-.139-.164-.227-.266-.566.79-1.12,1.559-1.671,2.33a1.148,1.148,0,0,1-1.97.2,5.178,5.178,0,0,0-2.958-1.37c0,.373.011.731,0,1.087a2.232,2.232,0,1,1-2.4-2.228c.411-.027.826,0,1.263,0V183.51c-.488-.131-.965-.241-1.428-.392a1.949,1.949,0,0,1-.588-.344.548.548,0,0,1-.1-.739.539.539,0,0,1,.754-.144,2.65,2.65,0,0,0,1.39.44Zm-.015,5.617c-.395,0-.754-.01-1.113,0a1.1,1.1,0,0,0-1.112,1.092,1.11,1.11,0,0,0,2.218.1c.032-.377.006-.76.006-1.2Zm1.142-5.61c.44,0,.844.024,1.245-.005a1.1,1.1,0,0,0,.972-1.128,1.135,1.135,0,0,0-1.067-1.087,1.1,1.1,0,0,0-1.142.918c-.04.419-.008.845-.008,1.3Z" transform="translate(-58.406 -163.311)" fill="#6b6b6b"/>
    <path id="Path_15066" data-name="Path 15066" d="M333.917,60.9a1.687,1.687,0,0,1-.04.192c-.243.733-.481,1.468-.734,2.2a.538.538,0,0,1-.689.384.529.529,0,0,1-.37-.7c.234-.758.486-1.512.75-2.261a.512.512,0,0,1,.627-.345A.555.555,0,0,1,333.917,60.9Z" transform="translate(-302.981 -55.06)" fill="#6b6b6b"/>
  </g>
</svg>
