<svg xmlns="http://www.w3.org/2000/svg" width="71" height="70" viewBox="0 0 71 70">
  <g id="Group_7305" data-name="Group 7305" transform="translate(-256 -248)">
    <rect id="Rectangle_5995" data-name="Rectangle 5995" width="71" height="70" rx="4" transform="translate(256 248)" fill="#dff4fa"/>
    <g id="account_success" data-name="account success" transform="translate(270.018 261.499)">
      <path id="Path_19748" data-name="Path 19748" d="M74.352,77.446a15.171,15.171,0,0,1-1.846,7.538,14.742,14.742,0,0,1-1.415,1.948c-.3.379-.308.49.12.726q2.932,1.62,5.868,3.23A11.488,11.488,0,0,1,81.045,94.4a.952.952,0,0,1,.051,1.169.88.88,0,0,1-1,.411,1.241,1.241,0,0,1-.642-.431,10.587,10.587,0,0,0-3.74-3.156c-1.835-.981-3.65-2-5.472-3.008a2.25,2.25,0,0,1-.575-3.774A9.428,9.428,0,0,0,71.9,81.22a16.49,16.49,0,0,0-.373-9.472,6.755,6.755,0,0,0-6.121-4.924,11.159,11.159,0,0,0-4.24.286,6.767,6.767,0,0,0-4.764,4.534,15.421,15.421,0,0,0,.215,11.537A9.579,9.579,0,0,0,58.2,85.608a2.278,2.278,0,0,1-.583,3.725q-2.982,1.632-5.99,3.215A10.011,10.011,0,0,0,48.12,95.51a.987.987,0,1,1-1.581-1.159,11.427,11.427,0,0,1,4.01-3.455c1.987-1.055,3.963-2.127,5.943-3.194.585-.315.588-.383.138-.866a11.559,11.559,0,0,1-2.644-5.3,17.512,17.512,0,0,1,.795-11.1,8.784,8.784,0,0,1,7.6-5.562,12.593,12.593,0,0,1,5.136.357c3.3.989,5.158,3.354,6.1,6.546a20.042,20.042,0,0,1,.731,5.671Z" transform="translate(-41.625 -58.228)" fill="#227391"/>
      <path id="Path_19749" data-name="Path 19749" d="M-.009,7.783c0-1.176-.008-2.352,0-3.527A4.283,4.283,0,0,1,4.223.007c2.436-.013,4.871,0,7.307,0a1.006,1.006,0,0,1,1.044.63.839.839,0,0,1-.241,1.047,1.475,1.475,0,0,1-.824.273c-2.335.021-4.669.012-7,.013A2.351,2.351,0,0,0,1.953,4.5q0,3.552,0,7.1a.865.865,0,0,1-.59.947A1.27,1.27,0,0,1,.4,12.422a1.321,1.321,0,0,1-.389-.91C-.036,10.271-.01,9.028-.01,7.784Z" transform="translate(0 0)" fill="#227391"/>
      <path id="Path_19750" data-name="Path 19750" d="M318.817,326.637c-1.26,0-2.519.007-3.779,0a.991.991,0,0,1-1.03-.843.958.958,0,0,1,.662-1.059,2.09,2.09,0,0,1,.6-.054q3.426,0,6.853,0a2.359,2.359,0,0,0,2.575-2.561c0-2.318,0-4.635,0-6.954,0-.754.372-1.185,1-1.174.6.011.961.442.962,1.169,0,2.418.012,4.837,0,7.255a4.282,4.282,0,0,1-4.256,4.224C321.2,326.644,320.009,326.637,318.817,326.637Z" transform="translate(-282.349 -282.321)" fill="#227391"/>
      <path id="Path_19751" data-name="Path 19751" d="M318.866.02c1.176,0,2.351,0,3.527,0a4.285,4.285,0,0,1,4.3,4.287c.011,2.4.005,4.8,0,7.2,0,.714-.376,1.15-.977,1.156s-.981-.421-.982-1.139c0-2.335,0-4.668,0-7a2.352,2.352,0,0,0-2.537-2.545q-3.476,0-6.953,0c-.766,0-1.2-.358-1.2-.976s.442-.983,1.2-.984c1.209,0,2.418,0,3.628,0Z" transform="translate(-282.385 -0.017)" fill="#227391"/>
      <path id="Path_19752" data-name="Path 19752" d="M.059,318.759c0-1.26-.007-2.519,0-3.779a.989.989,0,0,1,.843-1.03.954.954,0,0,1,1.059.66,2.086,2.086,0,0,1,.054.6q0,3.426,0,6.852a2.361,2.361,0,0,0,2.559,2.576q3.476,0,6.953,0c.736,0,1.163.349,1.176.945.013.623-.43,1.014-1.169,1.014-2.4,0-4.8.008-7.2,0a4.284,4.284,0,0,1-4.273-4.257c-.008-1.192,0-2.385,0-3.577Z" transform="translate(-0.067 -282.28)" fill="#227391"/>
      <path id="Path_19753" data-name="Path 19753" d="M168.022,153.523c.244-.231.391-.364.531-.5q2.675-2.673,5.349-5.347a1.045,1.045,0,0,1,1.156-.4.959.959,0,0,1,.494,1.506,2.726,2.726,0,0,1-.3.336q-3.118,3.121-6.239,6.24c-.666.665-1.148.668-1.805.015-.608-.6-1.218-1.206-1.816-1.82a.979.979,0,0,1-.084-1.47,1.007,1.007,0,0,1,1.473.094c.422.429.814.884,1.243,1.354Z" transform="translate(-148.385 -132.364)" fill="#227391"/>
    </g>
  </g>
</svg>
