<svg xmlns="http://www.w3.org/2000/svg" width="26" height="27" viewBox="0 0 29 27.631">
  <path id="tenant_filter" data-name="tenant filter" d="M8.648,11.463A6.158,6.158,0,0,1,5.731,4.169a6.08,6.08,0,1,1,8.7,7.254c.783.33,1.61.651,2.413,1.027.445.208.842.518,1.274.756a1.3,1.3,0,0,0,.59.183c2.993.011,5.986.008,8.979.008.922,0,1.309.392,1.31,1.318,0,.323,0,.646,0,.969a1.072,1.072,0,0,1-1.129,1.142.98.98,0,0,0-.783.332q-2.51,2.538-5.046,5.049a.639.639,0,0,0-.211.506c.012.71.016,1.422,0,2.132a.788.788,0,0,1-.2.479q-1.054,1.094-2.145,2.149a.557.557,0,0,1-.469.143.556.556,0,0,1-.217-.435c-.017-1.217-.009-2.433-.009-3.65v-.386c-.135-.006-.249-.016-.364-.016-.84.006-1.678.022-2.518.021q-7.59-.008-15.179-.022c-.59,0-.734-.151-.727-.752A11.531,11.531,0,0,1,8.4,11.545c.072-.02.143-.045.251-.079ZM1.02,22.064H18.373a.809.809,0,0,0-.238-.292c-1.524-1.521-3.05-3.04-4.564-4.571a1.071,1.071,0,0,0-.861-.377,1.044,1.044,0,0,1-1.1-1.1c-.006-.366,0-.732,0-1.1a1.085,1.085,0,0,1,1.229-1.23c1.066,0,2.131,0,3.2,0,.09,0,.179-.011.269-.017a10.018,10.018,0,0,0-9.567-.065,10.347,10.347,0,0,0-5.719,8.75ZM11.5,11.107A5.037,5.037,0,1,0,6.458,6.085,5.032,5.032,0,0,0,11.5,11.107Zm2.824,5.741-.062.091a2.456,2.456,0,0,1,.281.213q2.341,2.337,4.682,4.676a.863.863,0,0,1,.287.677c-.015,1.194-.007,2.388-.005,3.583,0,.09.011.179.022.324.5-.5.959-.942,1.4-1.412a.729.729,0,0,0,.179-.444c.019-.7.016-1.4,0-2.1a.755.755,0,0,1,.249-.6Q23.736,19.5,26.1,17.119c.076-.076.147-.158.253-.272H14.322Zm6-2.726H16.831q-2,0-4,0c-.39,0-.492.107-.5.5,0,.269,0,.538,0,.808,0,.624.055.679.682.679H27.578c.086,0,.173,0,.258,0a.4.4,0,0,0,.437-.444c0-.312,0-.625,0-.937,0-.523-.081-.6-.592-.6H20.319Z" transform="translate(0.003 0)" fill="#fff"/>
</svg>
