<svg xmlns="http://www.w3.org/2000/svg" width="11" height="11.003" viewBox="0 0 11 11.003">
  <path id="tick" d="M-89.027-500.831h-.645a.6.6,0,0,0-.083-.018,5.236,5.236,0,0,1-2.4-.757,5.428,5.428,0,0,1-2.61-3.779c-.038-.206-.058-.416-.086-.624v-.644c.007-.038.014-.076.02-.114.034-.236.054-.477.1-.71a5.343,5.343,0,0,1,2.042-3.218,5.34,5.34,0,0,1,4.49-1.008,5.308,5.308,0,0,1,3.2,2.027,5.349,5.349,0,0,1,1.113,3.9,5.313,5.313,0,0,1-1.342,3.075,5.4,5.4,0,0,1-3.182,1.79C-88.608-500.88-88.818-500.859-89.027-500.831Zm-1.18-4.593c-.2-.187-.4-.371-.6-.553-.3-.277-.6-.564-.917-.827a.526.526,0,0,0-.839.283.568.568,0,0,0,.2.587l1.779,1.618a.55.55,0,0,0,.843-.021q1.71-1.694,3.417-3.389a1.229,1.229,0,0,0,.088-.094.549.549,0,0,0,.12-.451.549.549,0,0,0-.271-.38.555.555,0,0,0-.708.128q-1.508,1.506-3.016,3.014c-.027.027-.056.054-.089.086Z" transform="translate(94.85 511.833)" fill="#008600"/>
</svg>
