<svg id="Group_3338" data-name="Group 3338" xmlns="http://www.w3.org/2000/svg" width="27.996" height="25.09" viewBox="0 0 27.996 25.09">
  <path id="Path_510" data-name="Path 510" d="M3796.641,346.549v-7.427c0-1.08.43-1.513,1.507-1.522.58,0,1.16,0,1.74,0,1.479,0,1.822.339,1.822,1.8v9.808c0,1.586.005,3.172,0,4.758,0,1.106-.454,1.556-1.544,1.559-.7,0-1.392.006-2.088,0a1.276,1.276,0,0,1-1.435-1.427C3796.637,351.577,3796.641,349.063,3796.641,346.549Zm1.291-7.694v15.369h2.489V338.855Z" transform="translate(-3788.988 -330.435)" fill="#6691e7"/>
  <path id="Path_511" data-name="Path 511" d="M3979.521,375.446v6.086c0,1.118-.426,1.549-1.536,1.549-.7,0-1.391.006-2.087,0a1.242,1.242,0,0,1-1.413-1.377q-.011-6.29,0-12.581a1.215,1.215,0,0,1,1.359-1.362q1.159-.013,2.317,0a1.217,1.217,0,0,1,1.356,1.366C3979.528,371.232,3979.521,373.338,3979.521,375.446Zm-3.792,6.347h2.526V369.047h-2.526Z" transform="translate(-3951.528 -357.998)" fill="#6691e7"/>
  <path id="Path_512" data-name="Path 512" d="M3747.3,263.234c1.347-.951,2.667-1.885,3.995-2.82q1.493-1.054,2.981-2.113c.37-.263.748-.4,1.055.042.293.425.022.717-.323.961q-3.624,2.561-7.246,5.123c-.58.41-.774.373-1.261-.2q-3.305-3.929-6.607-7.861c-.123-.146-.251-.288-.4-.462-.813.78-1.609,1.54-2.4,2.3q-2.233,2.155-4.465,4.315c-.125.12-.248.313-.389.33-.258.031-.628.047-.762-.1s-.068-.511-.034-.774c.015-.108.172-.2.271-.292q3.588-3.468,7.177-6.935c.566-.547.813-.538,1.324.07q3.288,3.906,6.57,7.817C3746.943,262.826,3747.1,263.014,3747.3,263.234Z" transform="translate(-3729.356 -254.347)" fill="#6691e7"/>
  <path id="Path_513" data-name="Path 513" d="M3707.711,417.269v-4.178c0-1.038.448-1.5,1.471-1.515.735-.012,1.47-.016,2.2,0a1.26,1.26,0,0,1,1.4,1.413q.016,4.354,0,8.705a1.282,1.282,0,0,1-1.442,1.426q-1.1.01-2.205,0a1.286,1.286,0,0,1-1.425-1.442C3707.706,420.207,3707.711,418.744,3707.711,417.269Zm1.291-4.447v9h2.482v-9Z" transform="translate(-3707.709 -398.039)" fill="#6691e7"/>
  <path id="Path_514" data-name="Path 514" d="M3885.576,417.321c0-1.451-.005-2.9,0-4.352a1.246,1.246,0,0,1,1.385-1.41c.774-.017,1.549-.021,2.323,0a1.214,1.214,0,0,1,1.337,1.34q.022,4.438,0,8.877a1.221,1.221,0,0,1-1.354,1.325c-.792.011-1.586.015-2.378,0a1.222,1.222,0,0,1-1.3-1.312C3885.567,420.3,3885.577,418.811,3885.576,417.321Zm3.793-4.5h-2.513v8.984h2.513Z" transform="translate(-3870.27 -398.02)" fill="#6691e7"/>
</svg>
